<svg width="1920" height="1080" viewBox="0 0 1920 1080" fill="none" xmlns="http://www.w3.org/2000/svg">
<g opacity="0.7">
<g filter="url(#filter0_d_103_12)">
<circle cx="1413.5" cy="531.5" r="179.5" fill="#BC2D2D"/>
</g>
<path d="M943.676 361.616C536.157 232.697 126.346 307.899 -27.6204 361.616L-139 392.826V975H3124.59C3275.82 836.569 3487.55 510.28 3124.59 312.57C2670.88 65.4331 1978.03 287.729 1986.22 312.57C1994.41 337.411 1453.07 522.764 943.676 361.616Z" fill="#DF8600" fill-opacity="0.37"/>
<path d="M938.676 611.749C531.157 486.641 121.346 559.621 -32.6204 611.749L-144 642.037V1207H3119.59C3270.82 1072.66 3482.55 756.019 3119.59 564.154C2665.88 324.323 1973.03 540.047 1981.22 564.154C1989.41 588.26 1448.07 768.134 938.676 611.749Z" fill="#FF0000"/>
<path d="M938.676 486.616C531.157 357.697 121.346 432.899 -32.6204 486.616L-144 517.826V1100H3119.59C3270.82 961.569 3482.55 635.28 3119.59 437.57C2665.88 190.433 1973.03 412.729 1981.22 437.57C1989.41 462.411 1448.07 647.764 938.676 486.616Z" fill="#DF8600" fill-opacity="0.37"/>
<rect width="1920" height="1080" fill="black" fill-opacity="0.06"/>
</g>
<defs>
<filter id="filter0_d_103_12" x="1234" y="351" width="372" height="371" filterUnits="userSpaceOnUse" color-interpolation-filters="sRGB">
<feFlood flood-opacity="0" result="BackgroundImageFix"/>
<feColorMatrix in="SourceAlpha" type="matrix" values="0 0 0 0 0 0 0 0 0 0 0 0 0 0 0 0 0 0 127 0" result="hardAlpha"/>
<feMorphology radius="2" operator="dilate" in="SourceAlpha" result="effect1_dropShadow_103_12"/>
<feOffset dx="7" dy="5"/>
<feGaussianBlur stdDeviation="2"/>
<feComposite in2="hardAlpha" operator="out"/>
<feColorMatrix type="matrix" values="0 0 0 0 1 0 0 0 0 0 0 0 0 0 0 0 0 0 0.25 0"/>
<feBlend mode="normal" in2="BackgroundImageFix" result="effect1_dropShadow_103_12"/>
<feBlend mode="normal" in="SourceGraphic" in2="effect1_dropShadow_103_12" result="shape"/>
</filter>
</defs>
</svg>
